<svg width="408" height="612" viewBox="0 0 408 612" fill="none" xmlns="http://www.w3.org/2000/svg">
<g clip-path="url(#clip0_5_2)">
<rect width="408" height="612" fill="url(#paint0_linear_5_2)"/>
<path d="M0 306V0H204H408V306V612H204H0V306ZM205.13 468.42C205.57 467.98 206.16 466.56 206.4 465.33C206.74 463.81 206.89 419.53 206.89 329.49V195.91L207.97 193.51C208.51 192.19 209.1 189.78 209.24 188.12C209.63 182.53 209.78 181.94 211.05 181.94C212.08 181.94 212.23 181.65 212.42 179.98L212.62 178.02H210.76C208.95 178.02 208.9 177.97 208.9 176.25C208.9 175.12 209.34 173.9 210.22 172.77C211.45 171.15 211.49 170.96 210.81 169.73C210.27 168.75 209.63 168.41 208.16 168.31C207.08 168.21 205.81 167.82 205.36 167.38C204.53 166.64 202.52 166.89 202.52 167.77C202.52 168.02 201.64 168.21 200.56 168.21C199.24 168.21 198.35 168.5 197.62 169.29C196.35 170.66 196.39 171.25 197.87 173.02C199.14 174.54 199.59 177.78 198.56 178.12C197.73 178.41 198.9 190.18 200.08 193.32C201.06 195.87 201.06 197.19 201.06 330.04C201.06 417.38 201.26 464.8 201.6 465.97C202.04 467.74 203.17 469.3 203.95 469.3C204.15 469.3 204.69 468.91 205.13 468.42ZM155.45 199.2C161.68 197.48 165.11 196.5 166.24 196.01C166.63 195.86 168.4 195.23 170.16 194.64C174.33 193.17 182.86 189 184.23 187.73C184.77 187.19 186 186.5 186.93 186.16C188.65 185.57 193.21 182.97 193.21 182.63C193.21 182.48 192.47 182.48 191.64 182.63C188.94 183.07 162.56 183.9 134.36 184.4C97.09 185.09 84.68 186.02 78.7 188.57L76.74 189.4L78.95 190.53C84.44 193.28 96.36 196.76 106.9 198.57C111.8 199.4 114.45 199.8 123.57 200.78C124.5 200.88 130.83 200.93 137.55 200.83C149.56 200.73 149.91 200.68 155.45 199.21V199.2ZM294.92 200.28C306.98 198.71 325.96 193.51 329.69 190.77L331.65 189.3L329.74 188.52C326.99 187.34 318.76 186.07 310.17 185.43C306.15 185.14 290.02 184.65 274.37 184.4C247.1 183.96 223.42 183.22 217.73 182.68L215.03 182.39L218.46 184.45C223.36 187.39 234.79 192.84 240.43 194.9C246.76 197.25 255.44 199.46 261.86 200.29C269.17 201.27 287.61 201.27 294.91 200.29L294.92 200.28ZM192.97 178.07L195.42 177.78L185.12 174.49C179.43 172.68 165.21 168.46 153.49 165.07C141.77 161.69 126.08 157.17 118.67 154.97C102.78 150.26 88.41 146.54 81.94 145.46C74.49 144.19 64.68 144.53 63.11 146.1C62.28 146.93 69.09 153.31 74.59 156.94C92.59 168.81 116.91 175.87 147.27 178.03C151.1 178.32 155.36 178.62 156.69 178.72C160.17 179.01 190.04 178.47 192.98 178.08L192.97 178.07ZM270.21 178.02C273.05 177.68 275.6 177.28 275.85 177.04C276.14 176.84 279.23 176.3 282.72 175.86C291.79 174.68 291.89 174.63 293.46 173.85C294.98 173.02 302.39 171.15 303.95 171.15C305.96 171.15 317.19 166.79 321.7 164.24C322.63 163.7 324.54 162.72 325.87 162.08C327.24 161.39 328.76 160.61 329.3 160.27C334.99 156.59 336.7 155.27 340.24 151.84C345.59 146.64 345.78 146.3 343.57 145.42C341.27 144.44 332.68 144.44 326.65 145.42C320.27 146.45 301.74 151.26 287.12 155.62C269.32 160.97 254.31 165.38 245.93 167.73C241.91 168.86 235.83 170.62 232.44 171.65C229.06 172.68 224.79 173.95 222.88 174.54C221.02 175.08 218.12 176.06 216.5 176.75C213.9 177.83 213.7 177.98 215.03 178.07C231.9 179.05 261.18 179 270.2 178.02H270.21Z" fill="white"/>
<path d="M201.89 447.38L199.54 447.18L199.64 430.02L199.74 412.91H204.1H208.42V430.02C208.37 444.93 208.27 447.18 207.64 447.43C206.86 447.72 206.41 447.72 201.9 447.38H201.89Z" fill="#D6A431"/>
<path d="M199.59 322.67V267.75H204H208.41V286.38V305.01H204.98H201.55V320.95V336.89H204.98H208.41V357.24V377.59H204H199.59V322.67Z" fill="#D6A431"/>
<path d="M199.59 224.11V211.36H203.95H208.31L208.36 224.11L208.41 236.86H204H199.59V224.11Z" fill="#D6A431"/>
<path d="M122.11 202.23C113.33 201.25 110.34 200.86 105.44 200.02C91.42 197.62 74.5 191.93 73.66 189.38C73.37 188.35 78.81 186.29 84.45 185.31C92.1 183.99 102.89 183.45 132.9 182.91C159.92 182.42 185.32 181.64 192.43 181.05C194.98 180.8 196.4 180.46 196.55 180.07C196.7 179.53 195.81 179.48 191.94 179.78C184.19 180.42 153 180.27 145.4 179.58C118.38 177.13 99.94 172.57 83.37 164.28C73.07 159.08 63.17 151.63 61.16 147.46C60.42 145.99 60.42 145.84 61.26 145.01C61.75 144.52 63.03 143.93 64.06 143.69C67.15 142.95 78.38 143.15 83.43 143.98C89.9 145.06 104.27 148.79 120.16 153.49C127.56 155.7 143.89 160.4 156.45 164.03C169 167.61 183.13 171.83 187.83 173.4C192.54 174.92 196.76 176.2 197.15 176.24C198.38 176.34 199.11 178.45 199.11 181.73C199.11 184.53 199.01 184.87 198.13 184.87C197.59 184.87 197.15 184.53 197.15 184.13C197.15 182.95 195.92 183.25 192.88 185.26C191.31 186.34 189.45 187.32 188.71 187.47C188.02 187.67 186.8 188.35 186.01 188.99C184.24 190.46 175.91 194.58 171.64 196.1C169.87 196.69 168.11 197.33 167.72 197.47C166.59 197.91 163.16 198.94 156.93 200.66C151.29 202.18 151.24 202.18 137.56 202.28C130.01 202.38 123.04 202.33 122.11 202.23Z" fill="#D6A431"/>
<path d="M260.39 201.74C247 199.97 232.88 194.87 217.68 186.34C214.84 184.72 212.24 183.4 211.94 183.4C211.65 183.4 211.25 184.18 211.06 185.12C210.86 186.35 210.52 186.84 209.83 186.84C209 186.84 208.9 186.45 208.9 183.21C208.9 177.62 209.34 175.22 210.47 174.92C211.25 174.67 211.3 174.77 210.81 175.36C210.52 175.75 210.37 176.19 210.56 176.39C210.85 176.73 211.64 176.49 218.21 174.18C222.97 172.46 233.71 169.23 244.45 166.24C252.93 163.84 268.09 159.42 285.64 154.13C300.25 149.77 318.79 144.96 325.17 143.93C331.25 142.95 342.68 142.95 344.98 143.93C348.46 145.35 347.78 147.36 341.89 153.1C338.21 156.68 336.45 158.05 330.76 161.73C330.22 162.07 328.7 162.86 327.33 163.54C326.01 164.18 324.09 165.16 323.16 165.7C318.65 168.25 307.42 172.61 305.41 172.61C303.84 172.61 296.44 174.47 294.92 175.31C293.35 176.09 293.25 176.14 284.18 177.32C280.7 177.76 277.56 178.3 277.31 178.5C275.54 179.92 244.5 180.71 221.7 179.97C216.35 179.77 214.1 179.87 213.95 180.26C213.61 181.29 235.18 182.22 275.35 182.91C305.85 183.4 315.66 183.89 324.29 185.36C329.39 186.19 333.95 187.91 334.34 189.14C334.44 189.43 333.31 190.61 331.89 191.69C329.83 193.26 327.72 194.14 322.18 195.86C313.3 198.66 303.94 200.76 296.39 201.74C288.99 202.72 267.8 202.72 260.4 201.74H260.39Z" fill="#D6A431"/>
<path d="M205.32 410.65C205.17 410.5 203.8 410.36 202.33 410.4H199.58V393.29V376.13H203.99H208.4V393.54V410.95H207.03C206.25 410.95 205.51 410.8 205.31 410.66L205.32 410.65Z" fill="#D6A431"/>
<path d="M202.92 338.51L200.08 338.31L199.98 320.8L199.83 303.29L204.15 303.44L208.42 303.59V320.95C208.42 336.3 208.32 338.31 207.64 338.55C207.2 338.7 206.61 338.8 206.32 338.75C205.98 338.7 204.46 338.6 202.94 338.5L202.92 338.51Z" fill="#D6A431"/>
<path d="M199.59 252.2V235.13L204 235.28L208.41 235.43V252.35V269.22H204H199.59V252.2Z" fill="#D6A431"/>
<path d="M199.49 204.59L199.34 196.16H204H208.66L208.32 201.41C208.17 204.35 208.12 208.08 208.27 209.8C208.42 211.47 208.37 212.84 208.12 212.84C207.87 212.89 205.86 212.94 203.66 212.99L199.64 213.09L199.49 204.61V204.59Z" fill="#D6A431"/>
<path d="M201.65 470.28C199.93 468.66 199.59 466.16 199.59 455.42C199.59 445.91 199.64 445.22 200.47 445.47C201.4 445.76 205.72 445.91 207.19 445.67C208.12 445.52 208.17 445.82 208.32 454.79C208.47 464.84 208.03 468.37 206.36 470.14C205.09 471.51 203.07 471.61 201.65 470.29V470.28Z" fill="#D6A431"/>
<path d="M199.93 415.11C199.73 414.03 199.59 412.12 199.59 410.89V408.59L203.17 408.79C205.08 408.89 207.09 408.99 207.58 409.04C208.27 409.04 208.41 409.53 208.41 411.88V414.68L204.54 414.48L200.67 414.28L200.47 415.65C200.32 416.92 200.27 416.88 199.93 415.11Z" fill="#D6A431"/>
<path d="M199.59 202.77C199.59 198.45 199.39 196.84 198.56 194.68C197.78 192.67 197.48 190.81 197.43 187.32C197.43 184.77 197.18 182.51 196.94 182.32C196.2 181.78 196.2 180.46 196.94 180.46C197.82 180.46 197.82 179.53 196.94 179.19C196.55 179.04 196.35 178.6 196.45 178.26C196.6 177.92 196.25 177.48 195.71 177.28C194.09 176.79 194.48 175.91 196.15 176.25C197.92 176.59 197.96 176.35 196.4 174.48C194.88 172.67 194.63 170.56 195.71 168.4C196.4 167.08 198.41 166.1 199.63 166.49C200.17 166.69 200.9 166.49 201.35 166.05C202.38 165.02 206.11 165.02 206.94 166C207.38 166.54 208.02 166.69 208.95 166.49C210.03 166.24 210.62 166.44 211.6 167.42C213.32 169.14 213.32 172.18 211.6 174.38C210.52 175.75 210.42 176.19 210.91 177.08C211.3 177.86 211.3 178.4 210.81 179.29C210.47 179.93 210.32 180.56 210.47 180.71C210.62 180.86 211.89 180.96 213.36 181C214.83 181 217.68 181.1 219.69 181.29C222.73 181.54 223.12 181.63 222.14 182.03C221.45 182.28 220.03 182.37 218.9 182.23C217.82 182.08 216.4 182.13 215.76 182.28L214.63 182.57L215.95 183.65C217.08 184.58 217.18 184.78 216.49 185.02C215.95 185.27 215.8 185.17 216.05 184.77C216.3 184.38 216.15 184.33 215.56 184.52C215.02 184.77 214.82 184.67 215.07 184.27C215.32 183.88 215.12 183.83 214.48 184.07C213.99 184.27 213.74 184.27 213.94 184.07C214.43 183.53 212.81 181.91 211.73 181.91C210.7 181.91 210.8 181.62 210.65 187.79C210.6 191.52 210.36 192.99 209.42 195.05L208.29 197.6L205.74 197.65C204.37 197.7 202.65 197.7 201.91 197.65L200.54 197.6V202.11C200.54 204.61 200.29 207.01 200.05 207.41C199.71 207.9 199.56 206.43 199.56 202.75L199.59 202.77Z" fill="#D6A431"/>
</g>
<rect x="0.5" y="0.5" width="407" height="611" stroke="#A3832F"/>
<defs>
<linearGradient id="paint0_linear_5_2" x1="62.5" y1="465" x2="345.5" y2="143" gradientUnits="userSpaceOnUse">
<stop stop-color="#8C6B2F"/>
<stop offset="0.25" stop-color="#D1B45A"/>
<stop offset="0.549237" stop-color="#EAD27A"/>
<stop offset="0.85" stop-color="#C9A74E"/>
<stop offset="0.989685" stop-color="#A3832F"/>
</linearGradient>
<clipPath id="clip0_5_2">
<rect width="408" height="612" fill="white"/>
</clipPath>
</defs>
</svg>
